# xmcd
#
# Track frame offsets:
#	150
#	17962
#	33346
#	48148
#	63528
#	78673
#	94159
#	109165
#	123082
#	137386
#	148206
#	164126
#	178981
#	192975
#	205087
#	219039
#	233489
#	245481
#	258959
#	273668
#
# Disc length: 3853 seconds
#
# Revision: 0
# Processed by: cddbd v1.5.2PL0 Copyright (c) Steve Scherf et al.
# Submitted via: EasyCDDAExtractor 16.0.6.1
#
DISCID=220f0b14
DTITLE=Κόκοτας Σταμάτης - Μ' ένα όνειρο τρελλό, 1966-72, Σ. Κόκοτας 1
DYEAR=2003
DGENRE=Ελαφρολαϊκή
TTITLE0=Στου Όθωνα τα χρόνια
TTITLE1=Με τι καρδιά να σ' αποχαιρετήσω
TTITLE2=Βρέχει ο Θεός
TTITLE3=Πήρες το μεγάλο δρόμο
TTITLE4=Μη μού χτυπάς τα μεσάνυχτα την πόρτα
TTITLE5=Στου Προφήτη Ηλία τα σοκάκια
TTITLE6=Όνειρο απατηλό
TTITLE7=Πλάϊ μου στάσου στη ζωή
TTITLE8=Κάποιο αλάνι (Το παιδί απ' το λιμάνι)
TTITLE9=Δεν τελειώνει η ζωή
TTITLE10=Πες πως μ' αντάμωσες
TTITLE11=Δεν το μπορείς
TTITLE12=Δεν ήταν από σύννεφο
TTITLE13=Έξω φυσάει και βρέχει
TTITLE14=Γιατί θαρρείς με κέφι
TTITLE15=Ο τρελλός
TTITLE16=Οι άγγελοι
TTITLE17=Ρωμιός αγάπησε Ρωμιά
TTITLE18=Ζητιάνος της αγάπης
TTITLE19=Καρδιά παραπονιάρα
EXTD=
EXTT0=
EXTT1=
EXTT2=
EXTT3=
EXTT4=
EXTT5=
EXTT6=
EXTT7=
EXTT8=
EXTT9=
EXTT10=
EXTT11=
EXTT12=
EXTT13=
EXTT14=
EXTT15=
EXTT16=
EXTT17=
EXTT18=
EXTT19=
PLAYORDER=
